<?xml version="1.0" encoding="UTF-8" standalone="no"?>
<!-- Created with Inkscape (http://www.inkscape.org/) -->
<svg xmlns:dc="http://purl.org/dc/elements/1.1/" xmlns:cc="http://web.resource.org/cc/" xmlns:rdf="http://www.w3.org/1999/02/22-rdf-syntax-ns#" xmlns:svg="http://www.w3.org/2000/svg" xmlns="http://www.w3.org/2000/svg" xmlns:xlink="http://www.w3.org/1999/xlink" xmlns:sodipodi="http://sodipodi.sourceforge.net/DTD/sodipodi-0.dtd" xmlns:inkscape="http://www.inkscape.org/namespaces/inkscape" width="42" height="11" id="svg2" sodipodi:version="0.32" inkscape:version="0.45.1" version="1.0" sodipodi:docbase="C:\Users\Simon\Pictures" sodipodi:docname="DR1 logo.svg" inkscape:output_extension="org.inkscape.output.svg.inkscape">
  <defs id="defs4"/>
  <sodipodi:namedview id="base" pagecolor="#ffffff" bordercolor="#666666" borderopacity="1.0" gridtolerance="10000" guidetolerance="10" objecttolerance="10" inkscape:pageopacity="0.0" inkscape:pageshadow="2" inkscape:zoom="15.987908" inkscape:cx="21" inkscape:cy="-0.77071373" inkscape:document-units="px" inkscape:current-layer="layer1" height="11px" width="42px" showgrid="true" inkscape:window-width="784" inkscape:window-height="575" inkscape:window-x="-12" inkscape:window-y="45"/>
  <metadata id="metadata7">
    <rdf:RDF>
      <cc:Work rdf:about="">
        <dc:format>image/svg+xml</dc:format>
        <dc:type rdf:resource="http://purl.org/dc/dcmitype/StillImage"/>
      </cc:Work>
    </rdf:RDF>
  </metadata>
  <g inkscape:label="Layer 1" inkscape:groupmode="layer" id="layer1" transform="translate(-6.32601, -7.3833)">
    <g id="g8254" clip-path="url(#id3845)" transform="matrix(0, 1.10065, 1.10065, 0, -166.137, -106.433)">
      <g id="g8256" transform="matrix(0, 1, -1, 0, 112.493, 193.943)">
        <path id="path8258" d="M 0,0 L -8.305,0 L -8.307,8.176 L 0,8.175 L 0,0 z " style="fill: rgb(237, 0, 140); fill-rule: nonzero; stroke: none;"/>
      </g>
    </g>
    <g id="g8260" clip-path="url(#id3846)" transform="matrix(0, 1.10065, 1.10065, 0, -166.137, -106.433)">
      <g id="g8262" transform="matrix(0, 1, -1, 0, 109.859, 190.608)">
        <path id="path8264" d="M 0,0 L 0,3.706 L -2.337,3.706 L -2.337,2.907 L -1.211,2.907 L -1.211,0 L -2.39,0 L -2.39,-0.798 L 1.163,-0.798 L 1.163,0 L 0,0 z " style="fill: rgb(255, 255, 255); fill-rule: nonzero; stroke: none;"/>
      </g>
    </g>
    <g id="g8266" clip-path="url(#id3847)" transform="matrix(0, 1.10065, 1.10065, 0, -166.137, -106.433)">
      <g id="g8268" transform="matrix(0, 1, -1, 0, 112.492, 184.696)">
        <path id="path8270" d="M 0,0 L -27.143,-0.002 L -27.143,8.174 L 0,8.175 L 0,0 z " style="fill: rgb(237, 0, 140); fill-rule: nonzero; stroke: none;"/>
      </g>
    </g>
    <g id="g8272" clip-path="url(#id3848)" transform="matrix(0, 1.10065, 1.10065, 0, -166.137, -106.433)">
      <g id="g8274" clip-path="url(#id3849)">
        <g id="g8276" transform="matrix(0, 1, -1, 0, 109.901, 166.26)">
          <path id="path8278" d="M 0,0 L -2.283,0 L -2.283,2.993 L 0,2.993 C 1.407,2.993 1.689,2.875 1.689,1.497 C 1.689,0.118 1.407,0 0,0 M -5.549,-0.755 L 1.51,-0.755 C 3.761,-0.755 4.38,-0.586 4.38,1.497 C 4.38,3.58 3.761,3.748 1.51,3.748 L -5.549,3.749 L -5.549,3.298 C -5.549,3.014 -5.092,3.131 -5.001,2.68 C -4.991,2.63 -4.977,2.511 -4.97,2.341 C -4.963,2.203 -4.957,1.953 -4.957,1.497 C -4.957,1.041 -4.963,0.79 -4.969,0.652 C -4.977,0.483 -4.991,0.363 -5.001,0.313 C -5.092,-0.138 -5.549,-0.021 -5.549,-0.305 L -5.549,-0.755 z " style="fill: rgb(255, 255, 255); fill-rule: nonzero; stroke: none;"/>
        </g>
      </g>
    </g>
    <g id="g8280" clip-path="url(#id3850)" transform="matrix(0, 1.10065, 1.10065, 0, -166.137, -106.433)">
      <g id="g8282" clip-path="url(#id3851)">
        <g id="g8284" transform="matrix(0, 1, -1, 0, 110.192, 181.536)">
          <path id="path8286" d="M 0,0 C 0,0.306 -0.498,0.106 -0.677,0.563 C -0.866,1.046 -1.157,1.173 -1.914,1.173 L -2.101,1.173 L -2.101,1.614 L -1.914,1.614 C -0.787,1.614 -0.506,1.858 -0.506,2.801 C -0.506,3.744 -0.787,4.039 -1.914,4.039 C -1.981,4.039 -10.379,4.039 -10.379,4.039 L -10.379,3.588 C -10.379,3.305 -9.922,3.422 -9.832,2.971 C -9.822,2.921 -9.808,2.802 -9.8,2.632 C -9.794,2.494 -9.788,2.243 -9.788,1.787 C -9.788,1.331 -9.794,1.08 -9.8,0.943 C -9.808,0.773 -9.822,0.654 -9.832,0.604 C -9.922,0.153 -10.379,0.27 -10.379,-0.014 L -10.379,-0.464 L -7.035,-0.464 C -7.09,-0.239 -7.092,0.469 -7.091,1.168 L -7.091,3.284 L -4.109,3.284 C -3.433,3.284 -3.32,3.166 -3.32,2.548 C -3.32,1.928 -3.433,1.811 -4.109,1.811 L -5.978,1.811 L -5.978,1.202 L -5.365,1.202 C -4.601,1.202 -4.335,1.057 -4.065,0.357 C -3.769,-0.41 -3.427,-0.464 -2.476,-0.464 L 0,-0.464 L 0,0 z " style="fill: rgb(255, 255, 255); fill-rule: nonzero; stroke: none;"/>
        </g>
      </g>
    </g>
    <g id="g12560" clip-path="url(#id4349)" transform="matrix(0, 1, 1, 0, -71.471, -603.532)">
      <g id="g12562" clip-path="url(#id4350)">
        <g id="g12564" transform="matrix(0, 12.9408, -17.0688, 0, 708.047, 170.313)">
          <use id="use12566" xlink:href="#id4351" x="0" y="0" width="744.09448" height="1052.3622"/>
        </g>
      </g>
    </g>
    <g id="g12568" clip-path="url(#id4352)" transform="matrix(0, 1, 1, 0, -71.471, -603.532)">
      <g id="g12570" clip-path="url(#id4353)">
        <g id="g12572" transform="matrix(0, 9.6288, -13.0128, 0, 708.047, 170.313)">
          <use id="use12574" xlink:href="#id4354" x="0" y="0" width="744.09448" height="1052.3622"/>
        </g>
      </g>
    </g>
    <g id="g12576" clip-path="url(#id4355)" transform="matrix(0, 1, 1, 0, -71.471, -603.532)">
      <g id="g12578" clip-path="url(#id4356)">
        <g id="g12580" transform="matrix(0, 9.6528, -12.8688, 0, 703.847, 173.601)">
          <use id="use12582" xlink:href="#id4357" x="0" y="0" width="744.09448" height="1052.3622"/>
        </g>
      </g>
    </g>
    <g id="g12584" clip-path="url(#id4358)" transform="matrix(0, 1, 1, 0, -71.471, -603.532)">
      <g id="g12586" clip-path="url(#id4359)">
        <g id="g12588" transform="matrix(0, 7.4928, -13.3488, 0, 706.367, 173.217)">
          <use id="use12590" xlink:href="#id4360" x="0" y="0" width="744.09448" height="1052.3622"/>
        </g>
      </g>
    </g>
    <g id="g12592" clip-path="url(#id4361)" transform="matrix(0, 1, 1, 0, -71.471, -603.532)">
      <g id="g12594" clip-path="url(#id4362)">
        <g id="g12596" transform="matrix(0, 6.72481, -11.4288, 0, 706.367, 173.217)">
          <use id="use12598" xlink:href="#id4363" x="0" y="0" width="744.09448" height="1052.3622"/>
        </g>
      </g>
    </g>
    <g id="g12600" clip-path="url(#id4364)" transform="matrix(0, 1, 1, 0, -71.471, -603.532)">
      <g id="g12602" clip-path="url(#id4365)">
        <g id="g12604" transform="matrix(0, 7.1088, -11.0208, 0, 704.039, 173.601)">
          <use id="use12606" xlink:href="#id4366" x="0" y="0" width="744.09448" height="1052.3622"/>
        </g>
      </g>
    </g>
    <g id="g12608" clip-path="url(#id4367)" transform="matrix(0, 1, 1, 0, -71.471, -603.532)">
      <g id="g12610" clip-path="url(#id4368)">
        <g id="g12612" transform="matrix(0, 6.34081, -12.1728, 0, 705.575, 173.601)">
          <use id="use12614" xlink:href="#id4369" x="0" y="0" width="744.09448" height="1052.3622"/>
        </g>
      </g>
    </g>
    <g id="g12616" clip-path="url(#id4370)" transform="matrix(0, 1, 1, 0, -71.471, -603.532)">
      <g id="g12618" clip-path="url(#id4371)">
        <g id="g12620" transform="matrix(0, 5.88481, -11.4528, 0, 705.215, 173.841)">
          <use id="use12622" xlink:href="#id4372" x="0" y="0" width="744.09448" height="1052.3622"/>
        </g>
      </g>
    </g>
    <g id="g12624" clip-path="url(#id4373)" transform="matrix(0, 1, 1, 0, -71.471, -603.532)">
      <g id="g12626" transform="matrix(0, 4.6848, -8.0448, 0, 703.943, 174.633)">
        <use id="use12628" xlink:href="#id4374" x="0" y="0" width="744.09448" height="1052.3622"/>
      </g>
    </g>
  </g>
</svg>