<?xml version="1.0" encoding="UTF-8" standalone="no"?>
<!-- Created with Inkscape (http://www.inkscape.org/) -->
<svg version="1.1" width="512" height="512" id="svg1" xmlns="http://www.w3.org/2000/svg" xmlns:svg="http://www.w3.org/2000/svg">
  <defs id="defs1"/>
  <path id="path2" d="M 109.95468,464.21951 C 109.06582,464.21951 108.69175,465.38747 109.4202,465.89704 150.94221,494.94844 201.47785,512 255.99974,512 310.52219,512 361.05783,494.94844 402.57984,465.89704 403.3083,465.38747 402.93422,464.21951 402.04536,464.21951 Z" style="fill:#e1143c"/>
  <path id="path4" d="M 402.04508,47.780489 C 402.93394,47.780489 403.30801,46.61253 402.58014,46.102955 361.05755,17.051556 310.52191,0 256.00003,0 201.47815,0 150.94251,17.051556 109.41992,46.102955 108.69204,46.61253 109.06612,47.780489 109.95498,47.780489 Z" style="fill:#e1143c"/>
  <path id="path6" d="M 464.21952,109.95476 V 402.04552 C 464.21952,402.9338 465.38748,403.30846 465.89706,402.58 494.94787,361.0574 512,310.52233 512,255.99986 512,201.47796 494.94787,150.94231 465.89706,109.42029 465.38748,108.69184 464.21952,109.06591 464.21952,109.95476" style="fill:#e1143c"/>
  <path id="path8" d="M 47.780477,109.95464 C 47.780477,109.06579 46.612518,108.69172 46.102944,109.42017 17.051552,150.94219 0,201.47784 0,255.99974 0,310.52221 17.051552,361.05786 46.102944,402.57988 46.612518,403.30834 47.780477,402.93426 47.780477,402.0454 Z" style="fill:#e1143c"/>
  <path id="path10" d="M 173.87092,352.83185 179.19364,302.46529 C 197.48437,312.83914 214.0003,319.93666 237.20435,319.93666 260.95445,319.93666 277.74311,310.38218 277.74311,292.77415 277.74311,272.70975 256.996,263.15527 230.65287,263.15527 214.81909,263.15527 199.12195,265.61165 183.97088,270.52554 L 196.52892,147.27106 H 332.61358 L 327.42695,198.86581 H 240.4795 L 238.84192,217.42929 H 250.30787 C 304.35956,217.42929 338.61959,242.6809 338.61959,290.72718 338.61959,339.18285 302.03869,369.75718 244.84735,369.75718 213.5909,369.75718 187.11053,360.47544 173.87092,352.83185" style="fill:#e1143c"/>
</svg>