<?xml version="1.0" encoding="UTF-8" standalone="no"?>
<!-- Created with Inkscape (http://www.inkscape.org/) -->
<svg version="1.1" width="512" height="512" id="svg1" xml:space="preserve" xmlns="http://www.w3.org/2000/svg" xmlns:svg="http://www.w3.org/2000/svg"><defs id="defs1"/><path id="path2" d="M 109.95468,464.21951 C 109.06582,464.21951 108.69175,465.38747 109.4202,465.89704 150.94221,494.94844 201.47785,512 255.99974,512 310.52219,512 361.05783,494.94844 402.57984,465.89704 403.3083,465.38747 402.93422,464.21951 402.04536,464.21951 Z" style="fill:#2de6eb"/><path id="path4" d="M 402.04508,47.780489 C 402.93394,47.780489 403.30801,46.61253 402.58014,46.102955 361.05755,17.051556 310.52191,0 256.00003,0 201.47815,0 150.94251,17.051556 109.41992,46.102955 108.69204,46.61253 109.06612,47.780489 109.95498,47.780489 Z" style="fill:#2de6eb"/><path id="path6" d="M 464.21952,109.95476 V 402.04552 C 464.21952,402.9338 465.38748,403.30846 465.89706,402.58 494.94787,361.0574 512,310.52233 512,255.99986 512,201.47796 494.94787,150.94231 465.89706,109.42029 465.38748,108.69184 464.21952,109.06591 464.21952,109.95476" style="fill:#2de6eb"/><path id="path8" d="M 47.780477,109.95464 C 47.780477,109.06579 46.612518,108.69172 46.102944,109.42017 17.051552,150.94219 0,201.47784 0,255.99974 0,310.52221 17.051552,361.05786 46.102944,402.57988 46.612518,403.30834 47.780477,402.93426 47.780477,402.0454 Z" style="fill:#2de6eb"/><path id="path10" d="M 219.88281,147.27148 C 216.23458,168.74016 211.45141,185.74606 204.92383,201.8418 198.53096,217.60534 191.10943,230.65186 183.33984,242.1582 168.09797,264.73061 150.88086,280.53906 150.88086,280.53906 V 326.43164 L 257.43331,326.68555 V 365.66211 H 314.747 V 326.93164 H 348.00781 V 281.76367 H 314.747 V 147.27148 Z M 256.2087,195.316 H 257.43331 V 281.76367 H 211.88 V 280.53906 C 211.88,280.53906 214.78383,278.10175 219.28,272.841 223.69016,267.68088 229.57699,259.95595 235.4632,249.733 242.02443,238.33769 246.89944,226.72664 250.53157,215.759 252.89112,208.63405 254.77664,201.52266 256.2087,195.316 Z" style="fill:#2de6eb"/></svg>