<svg xmlns="http://www.w3.org/2000/svg" width="947.649" height="418.547" viewBox="0 0 250.732 110.741" xmlns:v="https://vecta.io/nano"><g transform="translate(610.667 56.719)"><path clip-path="none" d="M-499.926-1.349a55.37 55.37 0 0 1-110.741 0 55.37 55.37 0 0 1 110.741 0z" fill="#f0281e"/><g fill="#fff"><path clip-path="none" d="M-585.639-5.668V8.806c0 8.527 6.257 11.329 11.362 11.329 4.64 0 7.674-2.115 10.93-7.774l10.376-18.029h-9.413l-6.91 12.226c-1.982 3.51-2.835 5.061-4.928 5.061-1.473 0-2.946-.753-2.946-3.477l.056-13.809z"/><path clip-path="none" transform="matrix(.110741 0 0 .110741 -610.66655 -56.719475)" d="M789 615v77H486l43.7-77z"/><path d="M-531.819-22.722h-59.8v8.527h59.8c2.359 0 4.319 1.849 4.319 4.208s-1.96 4.319-4.319 4.319h-10.742l-4.95 8.527h15.692c7.076 0 12.846-5.77 12.846-12.846s-5.77-12.735-12.846-12.735z" clip-path="none"/></g><path d="M-478.79-18.401h6.033l15.944 23.844v-23.844h6.129v33.995h-6.129l-15.896-23.509v23.509h-6.081zm44.687 7.9c-2.394 0-4.525.575-6.392 1.724s-3.312 2.737-4.334 4.764-1.532 4.286-1.532 6.775c0 2.554.542 4.844 1.628 6.87s2.601 3.608 4.549 4.74 4.197 1.7 6.751 1.7c2.075 0 3.934-.28 5.578-.838s2.865-1.189 3.663-1.891v-5.65c-.766.766-1.9 1.477-3.4 2.131s-3.112.981-4.836.981c-1.947 0-3.599-.502-4.956-1.508s-2.243-2.514-2.657-4.525h17.285l.096-3.016c0-2.33-.479-4.429-1.437-6.296s-2.298-3.328-4.022-4.381-3.719-1.58-5.985-1.58zm-.048 5.171c1.628 0 2.921.535 3.879 1.604s1.468 2.514 1.532 4.333h-11.492c.287-1.915.982-3.383 2.083-4.405s2.433-1.532 3.998-1.532zm13.408-4.692h6.512l4.836 17.764 4.98-17.764h6.464l5.027 17.764 4.788-17.764h6.512l-8.379 25.616h-5.841l-5.315-18.147-5.363 18.147h-5.793zm45.152 25.185c-1.597-.606-2.841-1.293-3.735-2.059V7.358c.925.926 2.186 1.756 3.783 2.49s3.239 1.101 4.932 1.101c1.532 0 2.689-.263 3.471-.79s1.173-1.189 1.173-1.987c0-.862-.415-1.508-1.245-1.939s-2.123-.886-3.878-1.365c-1.788-.479-3.232-.958-4.333-1.436s-2.059-1.205-2.873-2.179-1.221-2.274-1.221-3.902a6.95 6.95 0 0 1 1.173-3.926c.783-1.181 1.971-2.122 3.567-2.825s3.543-1.053 5.841-1.053c1.564 0 3.032.208 4.405.622s2.442.894 3.208 1.436v5.985c-.958-.798-2.115-1.484-3.471-2.059s-2.722-.862-4.094-.862c-1.309 0-2.394.248-3.256.742s-1.293 1.11-1.293 1.843c0 .703.375 1.237 1.125 1.604s1.923.726 3.519 1.077c1.851.447 3.359.91 4.525 1.388s2.179 1.245 3.04 2.298 1.293 2.49 1.293 4.309c0 1.405-.431 2.729-1.293 3.974s-2.091 2.25-3.687 3.016-3.464 1.149-5.602 1.149c-1.788 0-3.479-.303-5.075-.91z" clip-path="none" fill="#f0281e"/></g></svg>