<svg xmlns="http://www.w3.org/2000/svg" viewBox="0 0 464.95944 178.2"><path fill="#fa7806" d="M89.1 178.2c49.20844 0 89.1-39.89156 89.1-89.1C178.2 39.891407 138.30844 0 89.1 0 39.891407 0 0 39.891407 0 89.1c0 49.20844 39.891407 89.1 89.1 89.1Z"/><path fill="#fff" d="M30.650548 54.7074H126.8784c11.38698 0 20.6712 9.10602 20.6712 20.493s-9.28422 20.6712-20.6712 20.6712h-25.25094l7.96554-13.7214h17.2854c3.79566 0 6.9498-3.15414 6.9498-6.9498s-3.15414-6.7716-6.9498-6.7716H30.650548Zm35.925046 47.11608-.101722.18043c-3.117609 5.52123-4.496209 7.96331-7.828178 7.96331-2.37006 0-4.74012-1.21176-4.74012-5.59548s.0891-22.22154.0891-22.22154h-13.7214v23.29074c0 13.7214 10.0683 18.22986 18.28332 18.22986 7.46658 0 12.34926-3.40362 17.588266-12.50964C78.408 107.25858 92.8422 82.1502 92.8422 82.1502h-15.147s-6.735886 11.92158-11.119606 19.67328ZM140.5998 123.3144H86.6052l7.78734-13.7214h46.20726Z"/><path fill="#fa7806" d="M408.7908 68.5179c-1.1583-1.12266-1.72854-2.4948-1.72854-4.08078 0-1.58598.57024-2.95812 1.72854-4.08078 1.1583-1.12266 2.53044-1.6929 4.11642-1.6929 1.63944 0 3.0294.55242 4.15206 1.65726 1.12266 1.10484 1.6929 2.47698 1.6929 4.11642 0 1.63944-.57024 3.01158-1.6929 4.11642-1.12266 1.10484-2.51262 1.65726-4.15206 1.65726-1.58598 0-2.95812-.57024-4.11642-1.6929Zm-.891 6.62904h10.08612v41.21766H407.8998Zm-181.8531 38.47338c-4.24116-2.33442-7.60914-5.64894-10.08612-9.94356-2.4948-4.29462-3.7422-9.1773-3.7422-14.68368 0-5.48856 1.2474-10.38906 3.7422-14.68368 2.4948-4.29462 5.86278-7.60914 10.08612-9.94356 4.24116-2.33442 8.92782-3.51054 14.05998-3.51054 2.92248 0 5.6133.4455 8.05464 1.35432 2.44134.891 4.22334 1.90674 5.346 3.04722v10.40688c-1.28304-1.44342-3.1185-2.72646-5.50638-3.88476s-4.93614-1.72854-7.6626-1.72854c-3.3858 0-6.4152.81972-9.0882 2.45916-2.673 1.63944-4.75794 3.90258-6.27264 6.7716-1.5147 2.86902-2.28096 6.11226-2.28096 9.7119s.74844 6.82506 2.28096 9.7119c1.5147 2.86902 3.59964 5.13216 6.27264 6.7716 2.673 1.63944 5.7024 2.45916 9.0882 2.45916 2.72646 0 5.27472-.57024 7.6626-1.72854s4.22334-2.45916 5.50638-3.88476v10.40688c-1.12266 1.12266-2.92248 2.1384-5.346 3.04722-2.44134.891-5.13216 1.35432-8.05464 1.35432-5.13216 0-9.81882-1.1583-14.05998-3.51054Zm36.0855-51.96312h10.08612v18.87138c.76626-1.53252 2.15622-2.95812 4.15206-4.24116 1.99584-1.28304 4.61538-1.92456 7.85862-1.92456 4.41936 0 7.94772 1.44342 10.6029 4.31244 2.63736 2.86902 3.97386 6.93198 3.97386 12.17106v25.51824h-10.08612V92.4858c0-3.13632-.7128-5.54202-2.12058-7.23492-1.40778-1.6929-3.2967-2.54826-5.66676-2.54826-2.51262 0-4.59756.92664-6.237 2.77992-1.63944 1.85328-2.45916 4.24116-2.45916 7.16364v23.71842H262.1322Zm44.8173 43.60554c0 3.54618 1.2474 6.4152 3.7422 8.58924 2.4948 2.19186 5.64894 3.27888 9.4446 3.26106 2.7621 0 5.23908-.73062 7.43094-2.2275 2.19186-1.49688 3.67092-3.2967 4.43718-5.39946.30294 2.20968 1.2474 4.02732 2.81556 5.47074 1.56816 1.44342 3.6531 2.15622 6.27264 2.15622 2.70864 0 4.97178-.57024 6.7716-1.6929v-7.55568c-.46332.2673-.96228.46332-1.49688.6237-.55242.16038-.99792.23166-1.35432.23166-1.03356 0-1.88892-.33858-2.54826-.99792s-.99792-1.62162-.99792-2.8512V91.70172c0-5.54202-1.6038-9.81882-4.84704-12.8304-3.24324-3.01158-7.44876-4.50846-12.63438-4.50846-2.86902 0-5.57766.48114-8.12592 1.46124-2.53044.9801-4.47282 2.06712-5.80932 3.24324v8.94564c1.4256-1.19394 3.27888-2.28096 5.54202-3.27888 2.24532-.99792 4.50846-1.49688 6.7716-1.49688 2.77992 0 4.9896.65934 6.62904 1.9602 1.63944 1.30086 2.45916 3.08286 2.45916 5.346v1.85328h-7.69824c-5.20344 0-9.28422 1.17612-12.2958 3.54618-3.01158 2.35224-4.50846 5.47074-4.50846 9.31986Zm16.18056 4.47282c-1.63944 0-3.01158-.48114-4.11642-1.4256-1.10484-.94446-1.65726-2.1384-1.65726-3.59964 0-1.79982.73062-3.27888 2.19186-4.43718 1.46124-1.1583 3.3858-1.72854 5.80932-1.72854h6.09444v2.08494c0 2.72646-.8019 4.91832-2.38788 6.5934-1.58598 1.67508-3.564 2.51262-5.93406 2.51262Zm31.13154-34.58862h9.6228v8.71398c.76626-2.673 2.17404-4.91832 4.20552-6.73596 2.03148-1.81764 4.74012-2.72646 8.12592-2.72646.9801 0 1.92456.12474 2.8512.39204v9.48024c-1.22958-.10692-2.28096-.16038-3.15414-.16038-3.43926 0-6.237.99792-8.35758 2.95812-2.1384 1.97802-3.18978 4.79358-3.18978 8.42886v20.86722H354.2616Zm42.16212-13.48974H386.3376v54.7074h10.08612Zm33.03828 45.12024c1.74636 3.26106 4.1877 5.80932 7.32402 7.62696 3.1185 1.81764 6.75378 2.72646 10.83456 2.7621 3.35016 0 6.34392-.46332 8.98128-1.35432 2.65518-.90882 4.61538-1.92456 5.89842-3.04722v-9.0882c-1.22958 1.22958-3.06504 2.37006-5.47074 3.42144-2.42352 1.05138-5.00742 1.58598-7.78734 1.58598-3.13632 0-5.80932-.8019-7.98336-2.42352-2.19186-1.62162-3.61746-4.04514-4.2768-7.28838h27.81702c.10692-1.94238.16038-3.564.16038-4.84704 0-3.76002-.78408-7.128-2.3166-10.13958-1.53252-3.01158-3.68874-5.36382-6.46866-7.05672-2.7621-1.6929-5.9697-2.54826-9.6228-2.54826-3.84912 0-7.27056.92664-10.28214 2.77992-2.99376 1.85328-5.32818 4.40154-6.96762 7.6626-1.63944 3.26106-2.45916 6.89634-2.45916 10.90584 0 4.0986.87318 7.78734 2.61954 11.0484Zm23.27292-21.49092c1.53252 1.71072 2.35224 4.04514 2.45916 6.96762h-18.47934c.46332-3.08286 1.58598-5.45292 3.35016-7.09236 1.76418-1.63944 3.9204-2.45916 6.43302-2.45916 2.61954 0 4.70448.85536 6.237 2.5839Z"/></svg>