<?xml version="1.0" encoding="UTF-8" standalone="no"?>
<!-- Created with Inkscape (http://www.inkscape.org/) -->
<svg xmlns:dc="http://purl.org/dc/elements/1.1/" xmlns:cc="http://creativecommons.org/ns#" xmlns:rdf="http://www.w3.org/1999/02/22-rdf-syntax-ns#" xmlns:svg="http://www.w3.org/2000/svg" xmlns="http://www.w3.org/2000/svg" xmlns:sodipodi="http://sodipodi.sourceforge.net/DTD/sodipodi-0.dtd" xmlns:inkscape="http://www.inkscape.org/namespaces/inkscape" width="247.98" height="203.61" id="svg2" sodipodi:version="0.32" inkscape:version="0.46" version="1.0" sodipodi:docname="TV3.svg" inkscape:output_extension="org.inkscape.output.svg.inkscape">
  <defs id="defs4">
    <inkscape:perspective sodipodi:type="inkscape:persp3d" inkscape:vp_x="0 : 526.18109 : 1" inkscape:vp_y="0 : 1000 : 0" inkscape:vp_z="744.09448 : 526.18109 : 1" inkscape:persp3d-origin="372.04724 : 350.78739 : 1" id="perspective10"/>
    <inkscape:perspective id="perspective2447" inkscape:persp3d-origin="372.04724 : 350.78739 : 1" inkscape:vp_z="744.09448 : 526.18109 : 1" inkscape:vp_y="0 : 1000 : 0" inkscape:vp_x="0 : 526.18109 : 1" sodipodi:type="inkscape:persp3d"/>
    <inkscape:perspective id="perspective2499" inkscape:persp3d-origin="372.04724 : 350.78739 : 1" inkscape:vp_z="744.09448 : 526.18109 : 1" inkscape:vp_y="0 : 1000 : 0" inkscape:vp_x="0 : 526.18109 : 1" sodipodi:type="inkscape:persp3d"/>
  </defs>
  <sodipodi:namedview id="base" pagecolor="#ffffff" bordercolor="#666666" borderopacity="1.0" gridtolerance="10000" guidetolerance="10" objecttolerance="10" inkscape:pageopacity="0.0" inkscape:pageshadow="2" inkscape:zoom="3.96" inkscape:cx="121.33706" inkscape:cy="146.58393" inkscape:document-units="px" inkscape:current-layer="layer1" showgrid="true" inkscape:window-width="1280" inkscape:window-height="914" inkscape:window-x="-8" inkscape:window-y="-8">
    <inkscape:grid type="xygrid" id="grid2523" visible="true" enabled="true"/>
  </sodipodi:namedview>
  <metadata id="metadata7">
    <rdf:RDF>
      <cc:Work rdf:about="">
        <dc:format>image/svg+xml</dc:format>
        <dc:type rdf:resource="http://purl.org/dc/dcmitype/StillImage"/>
      </cc:Work>
    </rdf:RDF>
  </metadata>
  <g inkscape:label="Layer 1" inkscape:groupmode="layer" id="layer1" transform="translate(-279.967, -297.51)">
    <g id="g3317" transform="translate(-4.633, -4.8696)">
      <path sodipodi:nodetypes="cscccccssscccccssscccccsssssssssssc" id="path2453" d="M 446.68746,504.66726 C 415.26728,500.55841 394.42351,483.06077 388.68393,455.97521 C 387.89535,452.25388 387.24234,448.19665 387.23279,446.95915 L 387.21543,444.70915 L 412.63788,444.70915 L 438.06033,444.70915 L 439.24374,448.29492 C 440.77878,452.94613 445.82351,458.64745 449.91769,460.35811 C 457.52349,463.53601 471.85342,461.21469 476.42729,456.06378 C 481.17924,450.71233 481.98276,437.27702 478.76764,430.50166 C 475.52056,423.65893 466.78373,421.07492 453.30916,420.49369 L 442.21543,420.40907 L 442.21543,403.05911 L 442.21543,385.70915 L 451.16621,385.70915 C 466.56215,385.70915 474.06043,383.03068 478.94163,375.78747 C 483.32748,369.27931 481.39948,353.67366 475.57006,348.49729 C 470.07012,343.61349 458.11632,342.20808 450.70685,345.57413 C 445.85348,347.77897 440.84991,353.25663 439.24374,358.12338 L 438.06033,361.70915 L 412.63788,361.70915 L 387.21543,361.70915 L 387.21543,359.41925 C 387.21543,355.8101 389.99929,346.05486 392.34943,341.42865 C 399.97581,326.4162 409.83992,315.88884 421.56391,310.24983 C 431.32776,305.55361 439.43324,303.76432 454.2209,303.04079 C 479.40513,301.80857 498.03417,307.53371 514.23499,324.14558 C 524.92339,335.10517 530.21543,348.69996 530.21543,360.94325 C 530.21543,369.51433 527.5848,379.69725 523.64781,386.36584 C 520.19644,392.21189 512.2088,399.9164 508.987,401.28165 C 507.7685,401.79799 506.38354,402.58832 506.42078,402.60398 C 506.49712,402.63606 508.6031,404.12236 510.96543,405.45275 C 520.92981,411.06436 529.32232,423.54872 531.30728,435.71248 C 535.54742,461.6959 519.60629,487.02528 491.29081,499.29593 C 478.50572,504.83641 462.6147,506.75008 446.68746,504.66726 z" style="fill: rgb(0, 0, 0);"/>
      <path id="path2531" d="M 285,357.36218 L 285,337.36218 L 404,403.36218 L 384,414.36218 L 285,359.36218 L 285,357.36218 z" style="fill: rgb(255, 61, 62); fill-opacity: 1; fill-rule: evenodd; stroke: rgb(0, 0, 0); stroke-width: 0pt; stroke-linecap: butt; stroke-linejoin: miter; stroke-miterlimit: 4; stroke-dasharray: none; stroke-opacity: 1;"/>
      <path id="path2539" d="M 285,470.36218 L 285,439.36218 L 312,455.36218 L 285,470.36218 z" style="fill: rgb(255, 61, 62); fill-opacity: 1; fill-rule: evenodd; stroke: rgb(0, 0, 0); stroke-width: 0pt; stroke-linecap: butt; stroke-linejoin: miter; stroke-miterlimit: 4; stroke-dasharray: none; stroke-opacity: 1;"/>
      <path id="path2543" d="M 285,424.36218 L 285,426.36218 L 324,448.36218 L 342,438.36218 L 285,406.36218 L 285,424.36218 z" style="fill: rgb(255, 61, 62); fill-opacity: 1; fill-rule: evenodd; stroke: rgb(0, 0, 0); stroke-width: 0pt; stroke-linecap: butt; stroke-linejoin: miter; stroke-miterlimit: 4; stroke-dasharray: none; stroke-opacity: 1;"/>
      <path sodipodi:nodetypes="cccccc" id="path2545" d="M 285,371.36218 L 372,420.36218 L 373.47115,421.1266 L 354,431.36218 L 285,393.36218 L 285,371.36218 z" style="fill: rgb(255, 61, 62); fill-opacity: 1; fill-rule: evenodd; stroke: rgb(0, 0, 0); stroke-width: 0pt; stroke-linecap: butt; stroke-linejoin: miter; stroke-miterlimit: 4; stroke-dasharray: none; stroke-opacity: 1;"/>
    </g>
  </g>
</svg>