<?xml version="1.0" encoding="utf-8"?>
<!-- Generator: Adobe Illustrator 25.1.0, SVG Export Plug-In . SVG Version: 6.00 Build 0)  -->
<svg version="1.1" id="Слой_1" xmlns="http://www.w3.org/2000/svg" xmlns:xlink="http://www.w3.org/1999/xlink" x="0px" y="0px"
	 viewBox="0 0 150 150" style="enable-background:new 0 0 150 150;" xml:space="preserve">
<style type="text/css">
	.st0{fill-rule:evenodd;clip-rule:evenodd;fill:#623A7C;}
	.st1{fill-rule:evenodd;clip-rule:evenodd;fill:#FFFFFE;}
</style>
<desc>Created with Sketch.</desc>
<g id="brand_x2F_logo_x2F_3pluss">
	<g id="_x33_pluss_x5F_LOGO">
		<path id="Fill-1" class="st0" d="M150,73.8h-45.5v36.3h-33V73.8H35.9v-33h35.6V0.1C31.7,1.9,0,34.7,0,75c0,41.4,33.6,75,75,75
			c41.4,0,75-33.6,75-75C150,74.6,150,74.2,150,73.8"/>
		<path id="Fill-3" class="st1" d="M35,92c0.1-4.4,1.8-7.5,4.6-9.7c2.8-2.1,6.6-3.1,10.8-3.1c10.7,0,14.3,6.4,14.3,9.5
			c0,7.7-4.9,7.7-4.9,7.9v0.1c0,0.4,6,0.4,6,8.6c0,4.5-3.4,11.6-15.5,11.6c-16.6,0-16.7-11.7-16.4-14.4H44c-0.1,2,0.4,3.4,1.4,4.4
			c1,1.2,2.5,1.6,4.4,1.6c3,0,4.9-1.1,4.9-4.1c0-3.2-2.5-3.8-4.9-3.8c-1.5,0-2.4,0-2.4,0V94c0,0,0.9,0,2.4,0c2.2,0,5-0.5,5-3.3
			c0-2.3-2.7-3.2-4.8-3.2c-2.9,0-5.2,1.5-5.1,4.6H35"/>
		<path id="Fill-4" class="st1" d="M141.7,40.8h-37.2V6c-9.1-3.9-19-6-29.5-6c-1.2,0-2.3,0-3.5,0.1v40.7H33.8v33h37.7v37.7h33V73.8
			H150C149.8,61.9,146.8,50.7,141.7,40.8"/>
	</g>
</g>
</svg>
